<?xml version="1.0" encoding="UTF-8"?>
<svg width="26px" height="30px" viewBox="0 0 26 30" version="1.1" xmlns="http://www.w3.org/2000/svg" xmlns:xlink="http://www.w3.org/1999/xlink">
    <!-- Generator: Sketch 48.2 (47327) - http://www.bohemiancoding.com/sketch -->
    <title>Page 1</title>
    <desc>Created with Sketch.</desc>
    <defs></defs>
    <g id="Dashboard" stroke="none" stroke-width="1" fill="none" fill-rule="evenodd" transform="translate(-22.000000, -10.000000)">
        <g id="Page-1" transform="translate(22.000000, 10.000000)">
            <polygon id="Fill-1" fill="#42B02B" points="7.56445385 7.64296154 5.61237692 6.51426923 5.61237692 4.25803846 7.56445385 3.12980769 9.51653077 4.25803846 9.51653077 6.51426923"></polygon>
            <polygon id="Fill-2" fill="#42B02B" points="7.56445385 14.0463462 5.61237692 12.9181154 5.61237692 10.6614231 7.56445385 9.53319231 9.51653077 10.6614231 9.51653077 12.9181154"></polygon>
            <polygon id="Fill-3" fill="#42B02B" points="7.56445385 20.4501923 5.61237692 19.3215 5.61237692 17.0652692 7.56445385 15.9370385 9.51653077 17.0652692 9.51653077 19.3215"></polygon>
            <polygon id="Fill-4" fill="#42B02B" points="7.56445385 26.8540385 5.61237692 25.7248846 5.61237692 23.4691154 7.56445385 22.3404231 9.51653077 23.4691154 9.51653077 25.7248846"></polygon>
            <polygon id="Fill-5" fill="#42B02B" points="18.4290923 7.64296154 16.4770154 6.51426923 16.4770154 4.25803846 18.4290923 3.12980769 20.3816308 4.25803846 20.3816308 6.51426923"></polygon>
            <polygon id="Fill-6" fill="#42B02B" points="18.4290923 14.0463462 16.4770154 12.9181154 16.4770154 10.6614231 18.4290923 9.53319231 20.3816308 10.6614231 20.3816308 12.9181154"></polygon>
            <polygon id="Fill-7" fill="#42B02B" points="18.4290923 20.4501923 16.4770154 19.3215 16.4770154 17.0652692 18.4290923 15.9370385 20.3816308 17.0652692 20.3816308 19.3215"></polygon>
            <polygon id="Fill-8" fill="#42B02B" points="18.4290923 26.8540385 16.4770154 25.7248846 16.4770154 23.4691154 18.4290923 22.3404231 20.3816308 23.4691154 20.3816308 25.7248846"></polygon>
            <polygon id="Fill-9" fill="#FFFFFF" points="22.0172538 7.51008462 22.0172538 9.76677692 23.9688692 10.8947769 25.9214077 9.76677692 25.9214077 7.51008462 23.9688692 6.38185385"></polygon>
            <polygon id="Fill-10" fill="#42B02B" points="22.0172538 13.9138615 22.0172538 16.1703231 23.9688692 17.2987846 25.9214077 16.1703231 25.9214077 13.9138615 23.9688692 12.7851692"></polygon>
            <polygon id="Fill-11" fill="#FFFFFF" points="22.0172538 20.3172231 22.0172538 22.5739154 23.9688692 23.7021462 25.9214077 22.5739154 25.9214077 20.3172231 23.9688692 19.1889923"></polygon>
            <polygon id="Fill-12" fill="#FFFFFF" points="0 7.51008462 0 9.76677692 1.95207692 10.8947769 3.90461538 9.76677692 3.90461538 7.51008462 1.95207692 6.38185385"></polygon>
            <polygon id="Fill-13" fill="#42B02B" points="0 13.9138615 0 16.1703231 1.95207692 17.2987846 3.90461538 16.1703231 3.90461538 13.9138615 1.95207692 12.7851692"></polygon>
            <polygon id="Fill-14" fill="#FFFFFF" points="0 20.3172231 0 22.5739154 1.95207692 23.7021462 3.90461538 22.5739154 3.90461538 20.3172231 1.95207692 19.1889923"></polygon>
            <polygon id="Fill-15" fill="#FFFFFF" points="12.8883462 0.000138461538 10.9367308 1.12836923 10.9367308 3.38483077 12.8883462 4.51306154 14.8408846 3.38483077 14.8408846 1.12836923"></polygon>
            <polygon id="Fill-16" fill="#42B02B" points="12.8883692 10.8809308 10.9367538 9.75223846 10.9367538 7.49600769 12.8883692 6.36731538 14.8409077 7.49600769 14.8409077 9.75223846"></polygon>
            <polygon id="Fill-17" fill="#FFFFFF" points="12.8883692 17.2482692 10.9367538 16.1200385 10.9367538 13.8633462 12.8883692 12.7351154 14.8409077 13.8633462 14.8409077 16.1200385"></polygon>
            <polygon id="Fill-18" fill="#42B02B" points="12.8883692 23.6160462 10.9367538 22.4873538 10.9367538 20.2311231 12.8883692 19.1024308 14.8409077 20.2311231 14.8409077 22.4873538"></polygon>
            <polygon id="Fill-19" fill="#FFFFFF" points="10.9366615 26.5988769 10.9366615 28.8553385 12.8882769 29.9838 14.8408154 28.8553385 14.8408154 26.5988769 12.8882769 25.4701846"></polygon>
        </g>
    </g>
</svg>